<svg xmlns="http://www.w3.org/2000/svg" viewBox="0 0 512 512">
  <path fill="#623A1B" d="M 180.179,476 H 302.797 A 159.112,159.112 0 0 0 461.909,316.888 v -29.41 H 21.103 V 316.9 A 159.112,159.112 0 0 0 180.179,476 Z"  />
  <path fill="#BDD236" d="m 490.512,106.078 c -0.228,-0.133 -0.59,-0.35 -1.022,-0.578 a 43.443,43.443 0 0 0 -3.777,-1.804 c -1.6,-0.674 -3.5,-1.42 -5.641,-2.105 a 69.031,69.031 0 0 0 -7.049,-1.84 67.72,67.72 0 0 0 -16.611,-1.263 70.174,70.174 0 0 0 -17.634,3.127 71.172,71.172 0 0 0 -16.31,7.41 68.562,68.562 0 0 0 -13.003,10.428 l -0.542,0.578 a 69.633,69.633 0 0 1 12.618,22.168 68.67,68.67 0 0 0 11.307,0.421 71.16,71.16 0 0 0 17.646,-3.091 70.174,70.174 0 0 0 16.322,-7.362 67.72,67.72 0 0 0 13.003,-10.428 69.02,69.02 0 0 0 4.811,-5.497 c 1.384,-1.78 2.55,-3.44 3.477,-4.932 0.926,-1.492 1.635,-2.718 2.093,-3.609 0.24,-0.433 0.409,-0.817 0.517,-1.058 l 0.18,-0.373 z M 404.87,40.018 C 404.437,38.321 404.016,36.722 403.884,36 l -18.981,3.488 c 0.252,1.384 0.685,3.043 1.275,5.329 2.814,10.898 9.298,36.013 1.48,58.23 a 69.97,69.97 0 0 1 16.165,11.595 c 12.787,-28.928 4.511,-61.032 0.999,-74.625 z m 20.472,214.923 a 93.545,93.545 0 0 0 -26.03,-64.845 50.4,50.4 0 1 0 -94.05,-25.26 93.822,93.822 0 0 0 -66.745,103.445 h 185.839 a 94.604,94.604 0 0 0 0.986,-13.34 z"  />
  <path fill="#F3F4B0" d="m 150.902,268.233 h -42.1 a 23.347,23.347 0 0 1 42.1,0 z m 67.359,-13.292 a 114.847,114.847 0 0 1 1.203,-16.31 23.335,23.335 0 0 0 -18.68,29.602 h 18.295 a 113.38,113.38 0 0 1 -0.77,-13.292 z M 123.729,168.914 C 108.092,153.277 87.091,136.75 68.567,136.75 h -1.54 l 0.975,19.246 c 8.913,-0.433 23.287,8.3 39.489,24.056 q 1.528,1.48 2.995,2.972 a 42.58,42.58 0 0 1 8.083,-0.95 42.34,42.34 0 0 1 5.208,-13.172 z m 24.37,-18.933 a 68.706,68.706 0 0 0 6.928,-9.743 71.172,71.172 0 0 0 7.11,-16.55 70.174,70.174 0 0 0 2.706,-17.695 67.72,67.72 0 0 0 -1.672,-16.575 69.043,69.043 0 0 0 -2.01,-7 63.499,63.499 0 0 0 -2.236,-5.594 53.963,53.963 0 0 0 -1.889,-3.728 c -0.228,-0.433 -0.469,-0.782 -0.601,-1.01 l -0.217,-0.35 -0.36,0.18 c -0.241,0.121 -0.614,0.302 -1.035,0.542 a 52.092,52.092 0 0 0 -3.609,2.177 52.07,52.07 0 0 0 -4.811,3.609 69.031,69.031 0 0 0 -5.377,4.907 67.72,67.72 0 0 0 -10.104,13.232 70.174,70.174 0 0 0 -6.964,16.49 71.16,71.16 0 0 0 -2.719,17.779 68.562,68.562 0 0 0 1.672,16.575 66.337,66.337 0 0 0 4.234,12.546 c 0.47,1.058 0.927,1.96 1.336,2.718 a 42.713,42.713 0 0 1 19.666,-12.522 z m 32.525,111.708 a 42.412,42.412 0 0 1 10.609,-28.074 23.383,23.383 0 0 0 -43.555,6.014 42.81,42.81 0 0 1 23.492,28.28 23.287,23.287 0 0 0 9.622,-2.407 43.845,43.845 0 0 1 -0.168,-3.813 z m -79.388,-14.963 a 23.383,23.383 0 0 0 -41.522,21.495 h 28.688 a 42.665,42.665 0 0 1 12.822,-21.495 z m 79.845,-66.686 a 23.371,23.371 0 0 0 -43.543,5.642 42.905,42.905 0 0 1 19.51,18.427 42.292,42.292 0 0 1 11.44,-2.153 42.653,42.653 0 0 1 12.58,-21.916 z m 29,7.819 a 23.383,23.383 0 0 0 -22.685,17.537 42.905,42.905 0 0 1 19.534,16.924 42.316,42.316 0 0 1 16.335,-3.271 h 0.854 a 111.36,111.36 0 0 1 7.373,-17.177 23.383,23.383 0 0 0 -21.41,-14.013 z m -69.524,26.402 a 23.36,23.36 0 0 0 -43.483,4.174 42.905,42.905 0 0 1 20.966,18.945 42.557,42.557 0 0 1 10.826,-1.648 42.593,42.593 0 0 1 11.691,-21.47 z"  />
</svg>
