<svg
   viewBox="0 0 512 512"
   style="height: 512px; width: 512px;"
   xmlns="http://www.w3.org/2000/svg">
  <g>
    <path
       style="fill:#6f4345;fill-opacity:1"
       d="m 457.328,285.396 c -25.353,12.785 -51.92,22.672 -80.525,26.543 0.233,16.102 4.974,31.382 12.566,46.511 26.275,-2.579 50.777,-9.537 67.963,-28.494 3.346,-3.69 4.667,-11.49 3.645,-22.13 -0.672,-6.995 -2.159,-14.71 -3.649,-22.43 z"
       />
    <path
       style="fill:#6f4345;fill-opacity:1"
       d="m 54.671,285.396 c -1.49,7.72 -2.976,15.435 -3.648,22.43 -1.022,10.64 0.299,18.44 3.645,22.13 17.186,18.957 41.688,25.915 67.963,28.494 7.592,-15.13 12.333,-30.41 12.566,-46.512 -28.605,-3.87 -55.172,-13.757 -80.525,-26.542 z"
       />
    <path
       style="fill:#f3f3f3;fill-opacity:1"
       d="m 219.361,39.72 c 14.695,59.028 21.537,153.15 19.637,242.471 -1.007,47.323 -4.517,93.164 -10.87,131.53 -4.77,28.82 -10.831,53.327 -19.462,71.619 30.778,-1.773 63.89,-1.773 94.668,0 -8.631,-18.292 -14.691,-42.798 -19.463,-71.62 -6.352,-38.365 -9.862,-84.206 -10.869,-131.529 -1.9,-89.32 4.942,-183.443 19.637,-242.47 -25.553,5.69 -47.725,5.69 -73.278,0 z"
       />
    <path
       style="fill:#6f4345;fill-opacity:1"
       d="m 320,32 c -2.562,0.854 -5.07,1.653 -7.545,2.416 l 0.2,0.057 c -5.22,18.268 -9.608,41.795 -13.06,68.527 H 320 v 18 h -22.537 a 1048.454,1048.454 0 0 0 -2.797,30 H 320 v 18 h -26.62 c -0.628,9.847 -1.145,19.873 -1.556,30 H 320 v 18 h -28.785 c -0.27,9.96 -0.439,19.978 -0.49,30 H 320 v 18 h -29.248 c 0.046,5.619 0.127,11.226 0.246,16.809 0.094,4.414 0.217,8.809 0.356,13.191 H 320 v 18 h -27.943 a 1096.285,1096.285 0 0 0 1.795,30 H 320 v 18 h -24.643 c 0.964,10.345 2.079,20.375 3.35,30 H 320 v 18 h -18.654 c 0.095,0.59 0.186,1.194 0.283,1.78 5.633,34.022 13.967,61.439 23.058,76.109 C 347.2,488.888 367.685,491.92 384,496 352,384 352,256 352,192 l 22.7,102.146 c 21.809,-2.985 42.63,-9.753 62.946,-19.007 L 400,112 336,80 C 320,64 320,48 320,32 Z"
       />
    <path
       style="fill:#6f4345;fill-opacity:1"
       d="m 192,32 c 0,16 0,32 -16,48 l -64,32 -37.646,163.139 c 20.315,9.254 41.137,16.022 62.947,19.007 L 160,192 c 0,64 0,192 -32,304 16.315,-4.079 36.8,-7.112 59.313,-9.111 9.09,-14.67 17.425,-42.087 23.058,-76.11 0.097,-0.585 0.188,-1.19 0.283,-1.779 H 192 v -18 h 21.293 c 1.271,-9.625 2.386,-19.655 3.35,-30 H 192 v -18 h 26.148 c 0.727,-9.803 1.322,-19.829 1.795,-30 H 192 v -18 h 28.646 c 0.14,-4.382 0.262,-8.777 0.356,-13.191 0.119,-5.583 0.2,-11.19 0.246,-16.809 H 192 v -18 h 29.275 c -0.051,-10.022 -0.22,-20.04 -0.49,-30 H 192 v -18 h 28.176 c -0.41,-10.127 -0.928,-20.153 -1.557,-30 H 192 v -18 h 25.334 a 1048.454,1048.454 0 0 0 -2.797,-30 H 192 v -18 h 20.404 C 208.953,76.268 204.565,52.741 199.346,34.473 l 0.199,-0.057 A 345.758,345.758 0 0 1 192,32 Z"
       />
  </g>
</svg>
